<svg xmlns="http://www.w3.org/2000/svg" viewBox="0 0 171.32 90.2">
    <defs>
        <style>.cls-1,.cls-9{fill:#336;}.cls-1,.cls-2,.cls-5,.cls-6,.cls-7,.cls-8{stroke:#1e2958;}.cls-1,.cls-2,.cls-3,.cls-4,.cls-5,.cls-6,.cls-7,.cls-8{stroke-miterlimit:10;}.cls-1,.cls-2,.cls-3,.cls-4,.cls-5,.cls-8{stroke-width:1.5px;}.cls-2{fill:#f7f7f7;}.cls-3{fill:#a5ddec;}.cls-3,.cls-4{stroke:#1e2957;}.cls-4,.cls-5,.cls-6{fill:none;}.cls-6,.cls-7{stroke-width:2px;}.cls-7{fill:#1e2958;}.cls-8{fill:#ed1e27;}.cls-9{font-size:25.66px;font-family:Dubai-Light, Dubai;font-weight:300;letter-spacing:0.02em;}.cls-10{font-size:17.56px;letter-spacing:-0.01em;}</style>
    </defs>
    <title>fofoAsset 3</title>
    <g id="Layer_2" data-name="Layer 2">
        <g id="Layer_1-2" data-name="Layer 1">
            <path class="cls-1" d="M27.72,50.26a.22.22,0,0,0-.13.06.16.16,0,0,0-.06.13V76A13.49,13.49,0,0,0,41.11,89.45h0A13.49,13.49,0,0,0,54.69,76V50.45a.19.19,0,0,0-.19-.19" />
            <ellipse class="cls-2" cx="41.11" cy="50.4" rx="13.57" ry="4.32" />
        </g>
        <g id="Layer_6" data-name="Layer 6">
            <path class="cls-3" d="M53.4,30.54a6.59,6.59,0,0,1,1.19,5.74,6.29,6.29,0,0,1-5.19-2.53,6.26,6.26,0,0,1-.67-5.45A6.5,6.5,0,0,1,53.4,30.54Z" />
            <path class="cls-4" d="M47.2,54.12l0-2.79a13.38,13.38,0,0,1,.65-2.43c1.26-3.34,3.38-4.68,4.8-6.63,1.15-1.57,2.29-4.13,2.07-8.43" />
        </g>
        <g id="Layer_5" data-name="Layer 5">
            <path class="cls-5" d="M31.77,11.67A13.6,13.6,0,0,1,38.57,7a13.29,13.29,0,0,1,5.56-.4" />
            <path class="cls-3" d="M44.71,12.3a6.62,6.62,0,0,1-1.4-5.69A6.3,6.3,0,0,1,48.59,9a6.23,6.23,0,0,1,.86,5.42A6.48,6.48,0,0,1,44.71,12.3Z" />
        </g>
        <g id="Layer_4" data-name="Layer 4">
            <path class="cls-6" d="M43.5,36.43a1.16,1.16,0,0,1,1,0c1.22.75-.15,5.21-.73,7.12-.82,2.67-1.2,3-1.66,4.92a19.2,19.2,0,0,0-.48,6" />
            <ellipse class="cls-7" cx="44.01" cy="37.08" rx="0.86" ry="0.79" />
        </g>
        <g id="Layer_3" data-name="Layer 3">
            <path class="cls-6" d="M37,54.56a36.82,36.82,0,0,0,.11-4.21,27.47,27.47,0,0,0-.44-4.62,13.83,13.83,0,0,0-4.55-7.3" />
        </g>
        <g id="Layer_2-2" data-name="Layer 2">
            <path class="cls-8" d="M23.53,41.77a.19.19,0,0,1-.13.06.24.24,0,0,1-.14,0L4.83,24A13.5,13.5,0,0,1,4.58,5h0a13.51,13.51,0,0,1,19.08-.49L42.1,22.21a.19.19,0,0,1,0,.26" />
            <ellipse class="cls-2" cx="32.72" cy="32.02" rx="13.57" ry="4.32" transform="translate(-13.04 33.39) rotate(-46.1)" />
            <text />
        </g>
        <g id="Layer_7" data-name="Layer 7">
            <text class="cls-9" transform="translate(60.3 45.19) scale(1.08 1)">
                Hiba
                <tspan class="cls-10" x="49.94" y="0">Pharma</tspan>
            </text>
        </g>
    </g>
</svg>