<svg xmlns="http://www.w3.org/2000/svg" xmlns:xlink="http://www.w3.org/1999/xlink" width="370.566" height="132.797" viewBox="0 0 370.566 132.797">
  <defs>
    <filter id="Path_10" x="0" y="0" width="132.131" height="104.811" filterUnits="userSpaceOnUse">
      <feOffset dy="3" input="SourceAlpha"/>
      <feGaussianBlur stdDeviation="3" result="blur"/>
      <feFlood flood-opacity="0.502"/>
      <feComposite operator="in" in2="blur"/>
      <feComposite in="SourceGraphic"/>
    </filter>
    <filter id="Path_23" x="62.823" y="0.443" width="119.91" height="104.359" filterUnits="userSpaceOnUse">
      <feOffset dy="3" input="SourceAlpha"/>
      <feGaussianBlur stdDeviation="3" result="blur-2"/>
      <feFlood flood-opacity="0.502"/>
      <feComposite operator="in" in2="blur-2"/>
      <feComposite in="SourceGraphic"/>
    </filter>
    <filter id="MASSOUD" x="100.566" y="55.797" width="231" height="55" filterUnits="userSpaceOnUse">
      <feOffset dy="3" input="SourceAlpha"/>
      <feGaussianBlur stdDeviation="3" result="blur-3"/>
      <feFlood flood-opacity="0.502"/>
      <feComposite operator="in" in2="blur-3"/>
      <feComposite in="SourceGraphic"/>
    </filter>
    <filter id="PHARMA" x="264.566" y="89.797" width="106" height="43" filterUnits="userSpaceOnUse">
      <feOffset dy="3" input="SourceAlpha"/>
      <feGaussianBlur stdDeviation="3" result="blur-4"/>
      <feFlood flood-opacity="0.502"/>
      <feComposite operator="in" in2="blur-4"/>
      <feComposite in="SourceGraphic"/>
    </filter>
  </defs>
  <g id="Group_38" data-name="Group 38" transform="translate(-311.434 -49.203)">
    <g id="Group_37" data-name="Group 37">
      <g id="Group_35" data-name="Group 35" transform="translate(-866.822 -35.385)">
        <g id="Group_33" data-name="Group 33" transform="translate(1187.822 91.088)">
          <g transform="matrix(1, 0, 0, 1, -9.57, -6.5)" filter="url(#Path_10)">
            <path id="Path_10-2" data-name="Path 10" d="M-1078.111,1090.834h-13.77a4.511,4.511,0,0,0-3.364,2.3l-43.425,76.135a5.842,5.842,0,0,0,0,4.683,7.306,7.306,0,0,0,2.887,2.584c1.982.216,13.18,0,13.18,0s1.783.014,3.4-2.622l36.046-63.417,3.914,6.718-29.7,52.054s-1.451,2.833,0,4.646c0,0,2.287,2.768,3.911,2.622,2.326.021,11.287,0,11.287,0a4.929,4.929,0,0,0,4.343-2.584l36.146-63.312,7.215,12.568s1.788,3.035,3.6,3.108l12.535-.035c1.789-.111,3.1-1.818,3.688-3.691a12.208,12.208,0,0,0-.044-3.266c-.059-.618-14.078-24.636-14.078-24.636s-2.48-3.725-4.071-3.753h-17.875c-1.115.017-1.77.169-3.119,2.253l-4.037,6.817-4.007-6.622A5.617,5.617,0,0,0-1078.111,1090.834Z" transform="translate(1148.74 -1084.33)" fill="#646464" stroke="#646464" stroke-width="1"/>
          </g>
        </g>
      </g>
      <g transform="matrix(1, 0, 0, 1, 311.43, 49.2)" filter="url(#Path_23)">
        <path id="Path_23-2" data-name="Path 23" d="M-1116.529,1129.158l-22.143,39.023a5.759,5.759,0,0,0,0,4.639,7.255,7.255,0,0,0,2.874,2.559c1.973.214,13.12,0,13.12,0s1.775.013,3.381-2.6l13.954-25.821,36.19.229s3.211.1,4.464-1.531l25.957-46.353a6.216,6.216,0,0,0,0-4.15,11.207,11.207,0,0,0-1.92-3.347,4.715,4.715,0,0,0-3.413-1.522c-10.712-.482-54.112,0-54.112,0l8.6,15.759h19.809a2.952,2.952,0,0,1,2.966,4.069l-10.125,19.043Z" transform="translate(1211.57 -1083.18)" fill="#ffd207" stroke="#ffd207" stroke-width="1"/>
      </g>
    </g>
    <g transform="matrix(1, 0, 0, 1, 311.43, 49.2)" filter="url(#MASSOUD)">
      <text id="MASSOUD-2" data-name="MASSOUD" transform="translate(109.57 91.8)" font-size="30" font-family="Orbitron" letter-spacing="0.2em"><tspan x="0" y="0">MASSOUD</tspan></text>
    </g>
    <g transform="matrix(1, 0, 0, 1, 311.43, 49.2)" filter="url(#PHARMA)">
      <text id="PHARMA-2" data-name="PHARMA" transform="translate(317.57 115.8)" font-size="19" font-family="MicrosoftJhengHeiLight, Microsoft JhengHei" letter-spacing="0.072em"><tspan x="-43.192" y="0">PHARMA</tspan></text>
    </g>
  </g>
</svg>
